<?xml version="1.0" encoding="utf-8"?>
<svg viewBox="0 0 1549.9999 500" width="1549.9999" height="500" xmlns="http://www.w3.org/2000/svg">
  <defs>
    <filter id="filter0_d_1_1003" x="-10" y="0" width="246" height="120" filterUnits="userSpaceOnUse" color-interpolation-filters="sRGB">
      <feFlood flood-opacity="0" result="BackgroundImageFix"/>
      <feColorMatrix in="SourceAlpha" type="matrix" values="0 0 0 0 0 0 0 0 0 0 0 0 0 0 0 0 0 0 127 0" result="hardAlpha"/>
      <feOffset/>
      <feGaussianBlur stdDeviation="15"/>
      <feComposite in2="hardAlpha" operator="out"/>
      <feColorMatrix type="matrix" values="0 0 0 0 0.992157 0 0 0 0 0.956863 0 0 0 0 0.0862745 0 0 0 0.3 0"/>
      <feBlend mode="normal" in2="BackgroundImageFix" result="effect1_dropShadow_1_1003"/>
      <feBlend mode="normal" in="SourceGraphic" in2="effect1_dropShadow_1_1003" result="shape"/>
    </filter>
  </defs>
  <g filter="url(#filter0_d_1_1003)" transform="matrix(8.333333015441895, 0, 0, 8.333333015441895, -166.66667423645663, -250.00001898407962)">
    <rect x="20" y="30" width="186" height="60" rx="30" fill="#FDF416"/>
    <path fill-rule="evenodd" clip-rule="evenodd" d="M56.1907 69.9416C61.1929 69.8693 65.3622 66.0913 65.9257 61.1205C65.9897 60.5561 66.4991 60.1504 67.0635 60.2144C67.6279 60.2784 68.0336 60.7878 67.9696 61.3522C67.2895 67.3515 62.2576 71.9111 56.2204 71.9984C50.1833 72.0857 45.0216 67.6736 44.1683 61.6965C43.3149 55.7193 47.0358 50.039 52.8562 48.4335C57.7749 47.0767 62.8982 48.9871 65.7748 52.9729L65.7039 48.9142C65.694 48.3463 66.1464 47.8779 66.7143 47.868C67.2823 47.8581 67.7507 48.3104 67.7606 48.8784L67.8803 55.7339C67.8902 56.3019 67.4378 56.7703 66.8699 56.7802L66.2083 56.7918C66.1925 56.7924 66.1767 56.7927 66.161 56.7926L60.0143 56.8999C59.4464 56.9098 58.9779 56.4574 58.968 55.8895C58.9581 55.3216 59.4105 54.8531 59.9784 54.8432L64.4995 54.7643C62.2125 51.0662 57.713 49.2276 53.4031 50.4164C48.5806 51.7467 45.4976 56.4532 46.2046 61.4057C46.9117 66.3582 51.1885 70.014 56.1907 69.9416Z" fill="black" stroke="black" stroke-width="0.5" stroke-linecap="round" stroke-linejoin="round"/>
    <path d="M86.1378 66.5V53.4091H91.3026C92.2955 53.4091 93.1413 53.5987 93.8402 53.978C94.5391 54.353 95.0717 54.875 95.4382 55.544C95.8089 56.2088 95.9943 56.9759 95.9943 57.8452C95.9943 58.7145 95.8068 59.4815 95.4318 60.1463C95.0568 60.8111 94.5135 61.3288 93.8018 61.6996C93.0945 62.0703 92.2379 62.2557 91.2322 62.2557H87.9403V60.0376H90.7848C91.3175 60.0376 91.7564 59.946 92.1016 59.7628C92.451 59.5753 92.7109 59.3175 92.8814 58.9893C93.0561 58.657 93.1435 58.2756 93.1435 57.8452C93.1435 57.4105 93.0561 57.0312 92.8814 56.7074C92.7109 56.3793 92.451 56.1257 92.1016 55.9467C91.7521 55.7635 91.3089 55.6719 90.772 55.6719H88.9055V66.5H86.1378ZM100.464 53.4091V66.5H97.7409V53.4091H100.464ZM105.445 66.6854C104.819 66.6854 104.26 66.5767 103.77 66.3594C103.28 66.1378 102.892 65.8118 102.607 65.3814C102.326 64.9467 102.185 64.4055 102.185 63.7578C102.185 63.2124 102.285 62.7543 102.485 62.3835C102.686 62.0128 102.958 61.7145 103.304 61.4886C103.649 61.2628 104.041 61.0923 104.48 60.9773C104.923 60.8622 105.387 60.7812 105.873 60.7344C106.444 60.6747 106.904 60.6193 107.254 60.5682C107.603 60.5128 107.857 60.4318 108.015 60.3253C108.172 60.2187 108.251 60.0611 108.251 59.8523V59.8139C108.251 59.4091 108.123 59.0959 107.868 58.8743C107.616 58.6527 107.258 58.5419 106.794 58.5419C106.304 58.5419 105.914 58.6506 105.624 58.8679C105.334 59.081 105.142 59.3494 105.049 59.6733L102.53 59.4688C102.658 58.8722 102.909 58.3565 103.284 57.9219C103.659 57.483 104.143 57.1463 104.735 56.9119C105.332 56.6733 106.022 56.554 106.806 56.554C107.352 56.554 107.874 56.6179 108.373 56.7457C108.875 56.8736 109.321 57.0717 109.708 57.3402C110.1 57.6087 110.409 57.9538 110.635 58.3757C110.861 58.7933 110.974 59.294 110.974 59.8778V66.5H108.392V65.1385H108.315C108.157 65.4453 107.946 65.7159 107.682 65.9503C107.418 66.1804 107.1 66.3615 106.73 66.4936C106.359 66.6214 105.931 66.6854 105.445 66.6854ZM106.225 64.8061C106.625 64.8061 106.979 64.7273 107.286 64.5696C107.593 64.4077 107.833 64.1903 108.008 63.9176C108.183 63.6449 108.27 63.3359 108.27 62.9908V61.9489C108.185 62.0043 108.068 62.0554 107.919 62.1023C107.774 62.1449 107.61 62.1854 107.426 62.2237C107.243 62.2578 107.06 62.2898 106.877 62.3196C106.694 62.3452 106.527 62.3686 106.378 62.3899C106.059 62.4368 105.779 62.5114 105.541 62.6136C105.302 62.7159 105.117 62.8544 104.985 63.0291C104.853 63.1996 104.787 63.4126 104.787 63.6683C104.787 64.0391 104.921 64.3224 105.189 64.5185C105.462 64.7102 105.807 64.8061 106.225 64.8061ZM114.416 70.1818C114.071 70.1818 113.747 70.1541 113.445 70.0987C113.146 70.0476 112.899 69.9815 112.703 69.9006L113.317 67.8679C113.636 67.9659 113.924 68.0192 114.18 68.0277C114.44 68.0362 114.663 67.9766 114.851 67.8487C115.043 67.7209 115.198 67.5036 115.317 67.1967L115.477 66.7812L111.955 56.6818H114.819L116.852 63.892H116.954L119.006 56.6818H121.888L118.072 67.5611C117.889 68.0895 117.64 68.5497 117.325 68.9418C117.013 69.3381 116.619 69.6428 116.142 69.8558C115.665 70.0732 115.089 70.1818 114.416 70.1818ZM130.248 66.6854C129.621 66.6854 129.063 66.5767 128.573 66.3594C128.083 66.1378 127.695 65.8118 127.41 65.3814C127.128 64.9467 126.988 64.4055 126.988 63.7578C126.988 63.2124 127.088 62.7543 127.288 62.3835C127.488 62.0128 127.761 61.7145 128.106 61.4886C128.452 61.2628 128.844 61.0923 129.282 60.9773C129.726 60.8622 130.19 60.7812 130.676 60.7344C131.247 60.6747 131.707 60.6193 132.057 60.5682C132.406 60.5128 132.66 60.4318 132.817 60.3253C132.975 60.2187 133.054 60.0611 133.054 59.8523V59.8139C133.054 59.4091 132.926 59.0959 132.67 58.8743C132.419 58.6527 132.061 58.5419 131.596 58.5419C131.106 58.5419 130.716 58.6506 130.427 58.8679C130.137 59.081 129.945 59.3494 129.851 59.6733L127.333 59.4688C127.461 58.8722 127.712 58.3565 128.087 57.9219C128.462 57.483 128.946 57.1463 129.538 56.9119C130.135 56.6733 130.825 56.554 131.609 56.554C132.155 56.554 132.677 56.6179 133.175 56.7457C133.678 56.8736 134.123 57.0717 134.511 57.3402C134.903 57.6087 135.212 57.9538 135.438 58.3757C135.664 58.7933 135.777 59.294 135.777 59.8778V66.5H133.194V65.1385H133.118C132.96 65.4453 132.749 65.7159 132.485 65.9503C132.221 66.1804 131.903 66.3615 131.532 66.4936C131.162 66.6214 130.733 66.6854 130.248 66.6854ZM131.028 64.8061C131.428 64.8061 131.782 64.7273 132.089 64.5696C132.395 64.4077 132.636 64.1903 132.811 63.9176C132.986 63.6449 133.073 63.3359 133.073 62.9908V61.9489C132.988 62.0043 132.871 62.0554 132.721 62.1023C132.577 62.1449 132.412 62.1854 132.229 62.2237C132.046 62.2578 131.863 62.2898 131.68 62.3196C131.496 62.3452 131.33 62.3686 131.181 62.3899C130.861 62.4368 130.582 62.5114 130.344 62.6136C130.105 62.7159 129.92 62.8544 129.787 63.0291C129.655 63.1996 129.589 63.4126 129.589 63.6683C129.589 64.0391 129.724 64.3224 129.992 64.5185C130.265 64.7102 130.61 64.8061 131.028 64.8061ZM142.313 70.3864C141.431 70.3864 140.674 70.2649 140.044 70.022C139.417 69.7834 138.919 69.4574 138.548 69.044C138.177 68.6307 137.936 68.1662 137.825 67.6506L140.344 67.3118C140.421 67.5078 140.542 67.6911 140.708 67.8615C140.874 68.032 141.094 68.1683 141.367 68.2706C141.644 68.3771 141.98 68.4304 142.377 68.4304C142.969 68.4304 143.457 68.2855 143.84 67.9957C144.228 67.7102 144.422 67.2308 144.422 66.5575V64.7614H144.307C144.188 65.0341 144.009 65.2919 143.77 65.5348C143.531 65.7777 143.225 65.9759 142.85 66.1293C142.475 66.2827 142.027 66.3594 141.507 66.3594C140.77 66.3594 140.099 66.1889 139.494 65.848C138.893 65.5028 138.414 64.9766 138.056 64.2692C137.702 63.5575 137.525 62.6584 137.525 61.5717C137.525 60.4595 137.706 59.5305 138.068 58.7848C138.431 58.0391 138.912 57.4808 139.513 57.1101C140.118 56.7393 140.781 56.554 141.501 56.554C142.051 56.554 142.511 56.6477 142.882 56.8352C143.252 57.0185 143.551 57.2486 143.776 57.5256C144.007 57.7983 144.183 58.0668 144.307 58.331H144.409V56.6818H147.113V66.5959C147.113 67.4311 146.909 68.13 146.499 68.6925C146.09 69.255 145.524 69.6768 144.799 69.9581C144.079 70.2436 143.25 70.3864 142.313 70.3864ZM142.37 64.3139C142.809 64.3139 143.18 64.2053 143.482 63.9879C143.789 63.7663 144.024 63.451 144.186 63.0419C144.352 62.6286 144.435 62.1342 144.435 61.5589C144.435 60.9837 144.354 60.4851 144.192 60.0632C144.03 59.6371 143.796 59.3068 143.489 59.0724C143.182 58.8381 142.809 58.7209 142.37 58.7209C141.923 58.7209 141.546 58.8423 141.239 59.0852C140.932 59.3239 140.7 59.6562 140.542 60.0824C140.384 60.5085 140.306 61.0007 140.306 61.5589C140.306 62.1257 140.384 62.6158 140.542 63.0291C140.704 63.4382 140.936 63.7557 141.239 63.9815C141.546 64.2031 141.923 64.3139 142.37 64.3139ZM152.08 66.6854C151.453 66.6854 150.895 66.5767 150.405 66.3594C149.915 66.1378 149.527 65.8118 149.242 65.3814C148.96 64.9467 148.82 64.4055 148.82 63.7578C148.82 63.2124 148.92 62.7543 149.12 62.3835C149.32 62.0128 149.593 61.7145 149.938 61.4886C150.284 61.2628 150.676 61.0923 151.115 60.9773C151.558 60.8622 152.022 60.7812 152.508 60.7344C153.079 60.6747 153.539 60.6193 153.889 60.5682C154.238 60.5128 154.492 60.4318 154.649 60.3253C154.807 60.2187 154.886 60.0611 154.886 59.8523V59.8139C154.886 59.4091 154.758 59.0959 154.502 58.8743C154.251 58.6527 153.893 58.5419 153.428 58.5419C152.938 58.5419 152.548 58.6506 152.259 58.8679C151.969 59.081 151.777 59.3494 151.683 59.6733L149.165 59.4688C149.293 58.8722 149.544 58.3565 149.919 57.9219C150.294 57.483 150.778 57.1463 151.37 56.9119C151.967 56.6733 152.657 56.554 153.441 56.554C153.987 56.554 154.509 56.6179 155.007 56.7457C155.51 56.8736 155.955 57.0717 156.343 57.3402C156.735 57.6087 157.044 57.9538 157.27 58.3757C157.496 58.7933 157.609 59.294 157.609 59.8778V66.5H155.026V65.1385H154.95C154.792 65.4453 154.581 65.7159 154.317 65.9503C154.053 66.1804 153.735 66.3615 153.365 66.4936C152.994 66.6214 152.566 66.6854 152.08 66.6854ZM152.86 64.8061C153.26 64.8061 153.614 64.7273 153.921 64.5696C154.227 64.4077 154.468 64.1903 154.643 63.9176C154.818 63.6449 154.905 63.3359 154.905 62.9908V61.9489C154.82 62.0043 154.703 62.0554 154.553 62.1023C154.409 62.1449 154.244 62.1854 154.061 62.2237C153.878 62.2578 153.695 62.2898 153.512 62.3196C153.328 62.3452 153.162 62.3686 153.013 62.3899C152.693 62.4368 152.414 62.5114 152.176 62.6136C151.937 62.7159 151.752 62.8544 151.619 63.0291C151.487 63.1996 151.421 63.4126 151.421 63.6683C151.421 64.0391 151.556 64.3224 151.824 64.5185C152.097 64.7102 152.442 64.8061 152.86 64.8061ZM159.721 66.5V56.6818H162.444V66.5H159.721ZM161.089 55.4162C160.684 55.4162 160.337 55.282 160.047 55.0135C159.762 54.7408 159.619 54.4148 159.619 54.0355C159.619 53.6605 159.762 53.3388 160.047 53.0703C160.337 52.7976 160.684 52.6612 161.089 52.6612C161.494 52.6612 161.839 52.7976 162.125 53.0703C162.415 53.3388 162.559 53.6605 162.559 54.0355C162.559 54.4148 162.415 54.7408 162.125 55.0135C161.839 55.282 161.494 55.4162 161.089 55.4162ZM167.349 60.8239V66.5H164.626V56.6818H167.221V58.4141H167.336C167.553 57.843 167.918 57.3913 168.429 57.0589C168.94 56.7223 169.56 56.554 170.289 56.554C170.971 56.554 171.565 56.7031 172.072 57.0014C172.58 57.2997 172.974 57.7259 173.255 58.2798C173.536 58.8295 173.677 59.4858 173.677 60.2486V66.5H170.954V60.7344C170.958 60.1335 170.805 59.6648 170.494 59.3281C170.183 58.9872 169.754 58.8168 169.209 58.8168C168.842 58.8168 168.518 58.8956 168.237 59.0533C167.96 59.2109 167.743 59.4411 167.585 59.7436C167.432 60.0419 167.353 60.402 167.349 60.8239Z" fill="black"/>
  </g>
</svg>